<svg width="101" height="128" viewBox="0 0 101 128" fill="none" xmlns="http://www.w3.org/2000/svg">
<path d="M40.3008 0.667509C32.3569 2.28513 21.7973 7.61374 15.9847 12.9423C9.39708 19.1273 5.32822 25.2172 2.32505 33.5906C0.193754 39.7756 0 41.2029 0 63.4691C0 84.2122 0.193754 87.6378 1.93754 93.0617C7.1689 109.809 21.9911 123.035 39.8164 126.651C48.826 128.554 53.4761 128.459 62.292 126.27C79.633 121.893 92.2266 109.999 98.427 91.9197C99.9768 87.3524 100.268 83.6414 100.268 64.3252C100.268 39.5853 99.7835 36.7307 94.2611 26.1687C88.7392 15.6066 78.5673 7.04281 66.5543 2.66574C59.9667 0.191754 47.2759 -0.75979 40.3008 0.667509ZM42.0446 12.752C42.8196 14.0842 37.007 23.2189 32.4538 27.7863C28.4818 31.6876 17.7285 37.6823 14.6284 37.6823C12.6909 37.6823 14.0472 33.5906 17.8253 27.6911C21.3129 22.4577 28.0943 17.0339 34.9726 13.8938C39.6227 11.8956 41.2696 11.6102 42.0446 12.752ZM66.3609 14.6551C73.4327 17.9854 77.4047 21.1255 81.667 27.025C89.1269 37.3968 88.0612 39.7756 78.0827 34.9228C70.7202 31.4021 65.1014 26.2638 61.1293 19.4128C56.2855 11.1344 57.0604 10.3732 66.3609 14.6551ZM42.6259 35.7792C42.6259 36.3501 41.3665 39.2999 39.8164 42.3448C34.9726 51.6698 22.6692 61.0902 14.3378 61.6609L11.1408 61.9463V55.8564V49.7669L16.566 48.5296C24.0255 46.817 31.5819 43.2012 36.8132 38.6338C41.3665 34.7325 42.6259 34.1616 42.6259 35.7792ZM62.873 38.5386C68.5888 43.2012 76.1451 46.9121 83.1204 48.5296L88.6423 49.7669L88.9331 56.2371L89.2239 62.7077L86.1237 62.0416C73.9173 59.6627 61.2263 48.4347 57.6419 36.921C56.7701 33.9713 57.6419 34.2567 62.873 38.5386ZM40.2039 66.3235C35.2632 75.7438 21.7973 86.2104 14.4347 86.2104C12.0127 86.2104 11.7221 85.8297 11.1408 82.0238C10.0752 75.3631 10.4627 74.697 17.0503 72.8889C25.0911 70.7959 32.5506 67.0848 37.782 62.5171C43.0134 58.0452 43.7883 59.282 40.2039 66.3235ZM72.6577 69.1779C75.0794 70.3199 79.633 72.0327 82.8296 72.8889C89.3203 74.5065 89.8049 75.4584 88.6423 82.9753L88.0612 87.067L83.1204 85.5443C71.592 82.2139 60.0636 71.1761 57.545 61.0902L56.8665 58.2353L62.5823 62.6124C65.6824 64.9913 70.2356 67.941 72.6577 69.1779ZM71.7859 93.1565C74.6922 94.4887 78.1796 95.9161 79.7299 96.2015C81.1829 96.5822 82.6358 97.2483 82.9266 97.819C83.7984 99.2465 77.017 106.669 71.4951 110.284C66.5543 113.519 56.2855 117.23 56.0916 115.898C55.9947 114.852 55.9947 82.9753 56.0916 82.0238C56.1885 81.6432 58.5138 83.356 61.4201 85.925C64.3264 88.494 68.9765 91.7296 71.7859 93.1565ZM44.3696 99.2465L44.079 116.184L41.6571 115.898C36.8132 115.328 27.5131 110.189 22.9599 105.812C17.4378 100.293 15.8878 97.819 17.6316 97.153C29.3537 93.1565 38.6539 87.8279 40.9789 83.8315C41.3665 83.0706 42.4321 82.4045 43.2071 82.4045C44.3696 82.4045 44.5634 84.9735 44.3696 99.2465Z" fill="white"/>
</svg>
